<svg version="1.1" id="ht" xmlns="http://www.w3.org/2000/svg" xmlns:xlink="http://www.w3.org/1999/xlink" x="0px" y="0px"
	 width="100%" viewBox="0 0 103.9 10.9" style="enable-background:new 0 0 103.9 10.9;" xml:space="preserve">
<g>
	<path class="st0" d="M5.4,3.6c0-0.2,0.2-1.7,0.3-1.7c0.6,0,1.3,0,1.9,0L7.3,3.6h1.4C8.7,4,8.6,4.4,8.6,4.9C8.5,5.4,8.4,5.3,7.9,5.3
		C7.5,5.3,7.1,5.1,7,5.5C7,6,6.9,6.5,6.8,6.9h1.4c0,0.3,0,1.5-0.2,1.7C7.8,8.8,6.6,8.3,6.6,8.7c0,0.2-0.1,1.6-0.3,1.6
		c-0.6,0-1.2,0-1.8,0l0.2-1.7c-0.4,0-0.9,0-1.3,0c-0.1,0-0.2,1.2-0.2,1.3c-0.1,0.5-0.1,0.4-0.6,0.4c-0.5,0-0.9,0-1.4,0l0.2-1.7H0
		c0.1-0.4,0.1-0.9,0.2-1.3c0.1-0.5,0.2-0.4,0.7-0.4c0.4,0,0.8,0.2,0.9-0.2c0.1-0.5,0.1-1,0.2-1.5H0.5c0-0.3,0-1.5,0.2-1.7
		c0.2-0.2,1.4,0.3,1.5-0.1c0-0.2,0.1-1.6,0.3-1.6c0.6,0,1.2,0,1.8,0L4.1,3.6H5.4z M3.6,6.9c0.2,0,1.3,0.1,1.3,0
		C5,6.4,5.1,5.8,5.2,5.3c-0.2,0-1.3-0.1-1.3,0C3.8,5.8,3.7,6.4,3.6,6.9z"/>
	<path class="st0" d="M17.4,1.1c0.1,0.2,0,0.7,0,1c0,0.6-0.5,0.5-0.9,0.5c-0.5,0-1.1-0.1-1.6,0c-0.6,0-1.1,0-1.7,0
		c-0.3,0-0.7-0.1-0.9,0.2c-0.2,0.3-0.1,1,0,1.2c0,0.4,2.8,0.2,3.2,0.2c0.4,0,0.7,0,1.1,0C17,4.3,16.8,5,16.8,5.3c0,0.2,0,0.5,0,0.7
		c0,0.8-0.3,0.6-0.9,0.6c-1.1,0-2.1,0-3.2,0c-0.6,0-0.4,0.9-0.4,1.3c0,0.6,1.2,0.3,1.7,0.3c1,0,2.1-0.1,3.1,0c0.5,0.1,0.3,1,0.3,1.4
		c-0.1,0.3,0.1,0.6-0.1,0.9c0,0.3-0.7,0.2-0.8,0.2c-2,0-4,0-6,0c-1,0.1-0.8-0.5-0.8-1.3c0-0.5-0.1-1.2,0-1.7c0-1,0-1.9,0-2.9
		c-0.1-0.4,0.2-1,0-1.4c0-0.6,0-1.1,0-1.7c0-0.4-0.1-0.8,0-1.2c0-0.9,1-0.5,1.6-0.5c0.5,0,1,0,1.6,0c0.4,0,1.2,0.2,1.6,0
		c0.6,0,1.2,0,1.8,0c0.3,0,0.8-0.1,1.1,0C17.6,0.2,17.4,0.8,17.4,1.1z"/>
	<path class="st0" d="M24.5,8.3c0,1.1-1,2.5-2.3,2.5c-0.8,0.3-2.5,0.1-3.1-0.6c-0.4-0.3-0.8-0.8-0.9-1.3c0-0.5,1-0.9,1.4-0.9
		c0.3,0,0.8,0.5,1,0.8c0.5,0.2,0.9,0.1,1.4,0c0.8-0.8-1-1.4-1.5-1.6c-1.2-0.2-2.1-1.8-1.9-2.9c0.1-0.1,0.3-0.8,0.4-1
		c0.4-0.4,0.6-0.7,1.1-1c1.2-0.6,3-0.4,3.8,0.8c0.5,0.7,0.1,1.1-0.6,1.4c-0.5,0.3-0.8,0.2-1.2-0.2c-0.7-0.6-1.9,0.1-1.1,0.8
		c0.3,0.3,0.8,0.4,1.2,0.6C23.4,6.1,24.5,6.9,24.5,8.3z"/>
	<path class="st0" d="M31.5,2.2C31.7,2.4,31.6,4,31.4,4c-0.5,0.1-1.1-0.1-1.6,0c-0.8,0-0.5,2.5-0.5,3.1c0,1,0,1.9,0,2.9
		c0,0.9-0.5,0.8-1.2,0.8c-1,0.3-1-0.4-1-1.1c0-0.8,0-1.7,0-2.5c0-0.6,0.3-2.8-0.2-3.1c-0.3-0.2-0.9,0-1.3-0.1c-0.5,0-0.8,0-0.8-0.5
		c0-0.3,0-0.6,0-1c0-0.8,1.1-0.5,1.7-0.5c0.5,0,1.1-0.1,1.5,0c0.5,0,1.1,0,1.6,0C30,2,31.2,1.9,31.5,2.2C31.6,2.3,31.3,2,31.5,2.2z"
		/>
	<path class="st0" d="M39.8,6.7c-0.3,1.3-0.7,2.8-2,3.5c-1,0.7-1.9,0.6-3,0.6c-2.2-0.5-3.5-2.6-3.4-4.8c0.1-1,0.4-2,1.1-2.7
		c0.3-0.4,0.7-0.7,1.1-0.9c0.3-0.1,0.6-0.3,0.9-0.4c0.3-0.1,0.9,0,1.1-0.1c2.2,0,4,2,4.1,4.1C39.8,6.2,39.8,6.5,39.8,6.7z M37.7,6.4
		c0-1.2-0.9-2.3-2.2-2.3c-1.4,0-2.1,1.2-2.1,2.5C33.6,7,33.5,7.8,34,8.1c0.4,0.6,1.3,0.8,2,0.6C37,8.5,37.8,7.4,37.7,6.4z"/>
	<path class="st0" d="M46.5,2.5c-0.2,1.6-1.7,2.9-2.2,4.3C43.9,7.5,44,8.4,44,9.2c0,0.9,0.3,1.7-0.9,1.6c-0.4,0-1,0.2-1.3-0.1
		c-0.2-0.2,0-0.7,0-1c-0.2-0.7,0.1-1.8,0-2.6c-0.1-1.1-1.3-2.4-1.9-3.4c-0.2-0.4-0.7-0.9-0.8-1.4C39.1,1.8,40.4,2,40.8,2
		c0.7-0.2,1.4,1.4,1.7,1.9C42.5,4,43,5.1,43.2,4.7c0.1-0.3,0.3-0.6,0.4-0.9c0.5-0.8,0.5-1.8,1.6-1.8C45.7,2,46.5,1.9,46.5,2.5
		C46.5,2.6,46.5,2.4,46.5,2.5z"/>
	<path class="st0" d="M55.6,9.9c0,0.8-0.1,0.9-0.9,0.9c-0.3,0-0.6,0-0.9,0c-0.5,0-0.9,0.1-0.9-0.6c0-0.3,0-0.7,0-1
		c0-0.5,0-0.9,0-1.4c-0.1-0.8,0.2-1.2-0.8-1.2c-0.4,0-0.9,0-1.3,0c-0.7,0-1-0.1-1,0.6c0,0.5,0,1,0,1.5c0,0.5,0.1,1.3,0,1.8
		c-0.1,0.5-1.4,0.1-1.8,0.2c-1.1,0.1-0.8-0.5-0.8-1.3c0-1.1,0-2.2,0-3.3c0-1.1,0-2.2,0-3.3c0-0.4,0-0.9,0-1.3c0-0.4-0.1-0.8,0-1.2
		c0-0.5,0.7-0.3,1-0.3c0.5,0,1.6-0.3,1.6,0.4c0,0.5,0,1,0,1.5c0,0.4,0,0.9,0,1.3c0.2,0.7-0.3,0.9,0.6,0.9c0.5,0,2.2,0.2,2.5-0.1
		c0-1,0-2.1,0-3.1c0-1.1,0.3-0.6,1.1-0.9c0.3,0,0.6,0,0.9,0c0.7,0,0.7,0.3,0.7,0.9c0,1,0,2,0,3.1C55.6,5.9,55.4,8,55.6,9.9z"/>
	<path class="st0" d="M63.2,2.8c0.1,0.2,0.1,0.7,0,1C63.2,4.2,62.6,4,62.4,4c-0.5,0-1,0-1.4,0c-0.5,0-0.9,0-1.4,0
		c-0.7,0-0.8,1.3-0.1,1.3c0.4,0,3.1-0.2,3.2,0.2c0,0.2,0.1,1.8-0.1,1.9c-0.5,0.2-1.2,0-1.8,0c-0.4,0-0.9-0.1-1.3,0
		c-0.4,0.1-0.4,0-0.5,0.4C59,8,59,8.4,59,8.5c0,0.4,2.3,0.2,2.7,0.2c0.3,0,1.3-0.1,1.4,0.1c0.1,0.3,0,1.3,0,1.6
		c-0.1,0.6-2.2,0.3-2.8,0.3c-0.7,0-1.4,0-2.1,0c-0.3,0-0.7,0-1,0c-0.7,0.1-0.5-0.7-0.5-1.1c0-1.6,0-3.2,0-4.8c0-0.7,0-1.3,0-2
		c-0.1-1.6,0.9-0.5,1.8-0.9c0.9,0,1.7,0,2.6,0c0.4,0,0.8,0,1.2,0C63.2,2,63.2,2.1,63.2,2.8z"/>
	<path class="st0" d="M71.2,9c-1.2,2-4.1,2.4-5.8,1.1c-0.7-0.6-1.2-1.3-1.5-2.2c0-0.7-0.3-1.4-0.2-2.2c0.1-0.5,0.3-1.2,0.6-1.6
		c0.4-0.5,0.7-1,1.2-1.4c0.5-0.4,1-0.6,1.6-0.7c1-0.2,2.1,0,2.9,0.6c0.9,0.6,1.7,1.5,0.5,2.2c-0.7,0.5-1.8-0.8-2.7-0.7
		c-2,0-2.6,2.8-1.4,4c0.4,0.5,1.7,1.2,2.3,0.6c0.6-0.2,0.9-1,1.4-1.1C70.8,7.3,71.6,8.4,71.2,9z"/>
	<path class="st0" d="M78.9,10.1c0,0.7,0,0.7-0.7,0.7c-0.2,0-0.5,0-0.7,0c-0.9,0-0.7-0.6-0.7-1.3c0-0.5,0-1,0-1.5
		c0-0.8-0.5-0.4-1-0.5c-0.4,0-0.9,0-1.3,0c-0.3,0.2-0.2,0.7-0.2,1.1c0,0.4,0,0.9,0,1.3c0.4,1.2-0.6,0.9-1.4,0.9
		c-0.9,0-0.7-0.3-0.7-1c0-0.5,0-1,0-1.4c0-1,0-2,0-3c0-0.5,0-0.9,0-1.4c0-0.3-0.1-1.7,0.1-1.9C72.3,1.9,73.7,1.9,74,2
		c0.4,0.1,0.2,1.2,0.2,1.5c0,0.3-0.2,1.6,0.1,1.8c0.3,0.3,1.9,0,2.3,0c0.3-0.2,0.2-1.2,0.2-1.7c0.1-0.2,0-0.8,0-1
		c0-0.9,0.3-0.5,0.9-0.7c0.3,0,1.2-0.2,1.3,0.2c0.1,0.4,0,1,0,1.4c0,0.7,0,1.5,0,2.2C78.9,7.2,78.7,8.7,78.9,10.1z"/>
	<path class="st0" d="M87.5,6.7c-0.3,1.3-0.7,2.8-2,3.5c-1,0.7-1.9,0.6-3,0.6c-2.2-0.5-3.5-2.6-3.4-4.8c0.1-1,0.4-2,1.1-2.7
		c0.3-0.4,0.7-0.7,1.1-0.9c0.3-0.1,0.6-0.3,0.9-0.4c0.3-0.1,0.9,0,1.1-0.1c2.2,0,4,2,4.1,4.1C87.5,6.2,87.5,6.5,87.5,6.7z M85.4,6.4
		c0-1.2-0.9-2.3-2.2-2.3c-1.4,0-2.1,1.2-2.1,2.5c0.1,0.4,0.1,1.3,0.6,1.5c0.5,0.6,1.3,0.8,2,0.6C84.7,8.5,85.5,7.4,85.4,6.4z"/>
	<path class="st0" d="M97.1,5c0,1.4-0.2,2.6-1,3.8c-0.3,0.4-0.8,0.9-1.3,1.2c-0.4,0.2-1.4,0.4-1.6,0.6c-1.1,0.3-2.3,0.2-3.5,0.2
		c-0.5,0-1.7,0.2-1.7-0.4c0-0.6,0-1.1,0-1.6c0-1.1,0-2.1,0-3.2c0.1-0.3,0-1.1,0-1.4c-0.1-0.6,0.2-1.3,0-1.8c-0.1-0.5,0-1.1,0-1.6
		c0-0.8,0.5-0.7,1.2-0.7c1,0,2,0,2.9,0c1.4,0.3,2.6,0.5,3.7,1.6c0.3,0.5,0.8,1,1,1.6C96.9,3.8,97.1,4.4,97.1,5z M90.6,5.8
		c0,0.6-0.1,1.3,0,1.9c0,0.9,1.2,0.7,1.8,0.6c0.2-0.2,0.8-0.2,1-0.3c0.3-0.2,0.5-0.4,0.8-0.6c0.3-0.7,0.6-1.3,0.5-2.1
		c-0.1-1.7-1.6-2.6-3.2-2.6c-0.9,0-0.9,0.4-0.9,1.2C90.6,4.4,90.6,5.1,90.6,5.8z"/>
	<path class="st0" d="M103.9,2.8c0.1,0.2,0.1,0.7,0,1c-0.1,0.3-0.6,0.2-0.8,0.2c-0.5,0-1,0-1.4,0c-0.5,0-0.9,0-1.4,0
		c-0.7,0-0.8,1.3-0.1,1.3c0.4,0,3.1-0.2,3.2,0.2c0,0.2,0.1,1.8-0.1,1.9c-0.5,0.2-1.2,0-1.8,0c-0.4,0-0.9-0.1-1.3,0
		c-0.4,0.1-0.4,0-0.5,0.4c0,0.2-0.1,0.6,0,0.7c0,0.4,2.3,0.2,2.7,0.2c0.3,0,1.3-0.1,1.4,0.1c0.1,0.3,0,1.3,0,1.6
		c-0.1,0.6-2.2,0.3-2.8,0.3c-0.7,0-1.4,0-2.1,0c-0.3,0-0.7,0-1,0c-0.7,0.1-0.5-0.7-0.5-1.1c0-1.6,0-3.2,0-4.8c0-0.7,0-1.3,0-2
		c-0.1-1.6,0.9-0.5,1.8-0.9c0.9,0,1.7,0,2.6,0c0.4,0,0.8,0,1.2,0C103.8,2,103.9,2.1,103.9,2.8z"/>
</g>
</svg>
