<svg version="1.1" id="facebook" xmlns="http://www.w3.org/2000/svg" xmlns:xlink="http://www.w3.org/1999/xlink" x="0px" y="0px"
	 width="100%" viewBox="0 0 160 160" style="enable-background:new 0 0 160 160;" xml:space="preserve">
<g>
	<path class="st1" d="M147.6,51.4c-3.7-8.7-9-16.6-15.7-23.3c-6.7-6.7-14.6-12-23.3-15.7C99.5,8.5,89.9,6.6,80,6.6
		c-9.9,0-19.5,1.9-28.6,5.8c-8.7,3.7-16.6,9-23.3,15.7c-6.7,6.7-12,14.6-15.7,23.3c-3.8,9-5.8,18.7-5.8,28.6
		c0,9.9,1.9,19.5,5.8,28.6c3.7,8.7,9,16.6,15.7,23.3c6.7,6.7,14.6,12,23.3,15.7c9,3.8,18.7,5.8,28.6,5.8c9.9,0,19.5-1.9,28.6-5.8
		c8.7-3.7,16.6-9,23.3-15.7c6.7-6.7,12-14.6,15.7-23.3c3.8-9,5.8-18.7,5.8-28.6C153.4,70.1,151.5,60.5,147.6,51.4z M80,145.7
		c-36.3,0-65.7-29.4-65.7-65.7c0-36.3,29.4-65.7,65.7-65.7c36.3,0,65.7,29.4,65.7,65.7C145.7,116.3,116.3,145.7,80,145.7z"/>
	<path class="st0" d="M149.1,50.8c-3.8-8.9-9.2-17-16.1-23.8c-6.9-6.9-14.9-12.3-23.8-16.1C99.9,7,90.1,5,80,5
		c-10.1,0-20,2-29.2,5.9C41.9,14.7,33.9,20.1,27,27c-6.9,6.9-12.3,14.9-16.1,23.8C7,60.1,5,69.9,5,80s2,19.9,5.9,29.2
		c3.8,8.9,9.2,17,16.1,23.8c6.9,6.9,14.9,12.3,23.8,16.1C60.1,153,69.9,155,80,155c10.1,0,19.9-2,29.2-5.9c8.9-3.8,17-9.2,23.8-16.1
		c6.9-6.9,12.3-14.9,16.1-23.8C153,99.9,155,90.1,155,80S153,60.1,149.1,50.8z M147.6,108.6c-3.7,8.7-9,16.6-15.7,23.3
		c-6.7,6.7-14.6,12-23.3,15.7c-9.1,3.8-18.7,5.8-28.6,5.8c-9.9,0-19.5-1.9-28.6-5.8c-8.7-3.7-16.6-9-23.3-15.7
		c-6.7-6.7-12-14.6-15.7-23.3c-3.8-9-5.8-18.7-5.8-28.6c0-9.9,1.9-19.5,5.8-28.6c3.7-8.7,9-16.6,15.7-23.3
		c6.7-6.7,14.6-12,23.3-15.7c9-3.8,18.7-5.8,28.6-5.8c9.9,0,19.5,1.9,28.6,5.8c8.7,3.7,16.6,9,23.3,15.7c6.7,6.7,12,14.6,15.7,23.3
		c3.8,9,5.8,18.7,5.8,28.6C153.4,89.9,151.5,99.5,147.6,108.6z"/>
	<path class="st0" d="M80,14.3c-36.3,0-65.7,29.4-65.7,65.7c0,36.3,29.4,65.7,65.7,65.7c36.3,0,65.7-29.4,65.7-65.7
		C145.7,43.7,116.3,14.3,80,14.3z M98.6,73.4L98,80H85.6c0,18.7,0,41.8,0,41.8H68.8c0,0,0-22.9,0-41.8h-8.4v-6.6V63.3h8.3v-7.6
		c0-6.8,3.3-17.5,17.6-17.5l12.9,0.1v14.3c0,0-7.9,0-9.4,0c-1.5,0-3.7,0.8-3.7,4v6.7h13.3L98.6,73.4z"/>
</g>
</svg>
