<svg version="1.1" id="instagram" xmlns="http://www.w3.org/2000/svg" xmlns:xlink="http://www.w3.org/1999/xlink" x="0px" y="0px"
	 width="100%" viewBox="0 0 160 160" style="enable-background:new 0 0 160 160;" xml:space="preserve">

<g>
	<path class="st1" d="M147.6,51.4c-3.7-8.7-9-16.6-15.7-23.3c-6.7-6.7-14.6-12-23.3-15.7c-9-3.8-18.7-5.8-28.6-5.8
		c-9.9,0-19.5,1.9-28.6,5.8c-8.7,3.7-16.6,9-23.3,15.7c-6.7,6.7-12,14.6-15.7,23.3c-3.8,9-5.8,18.7-5.8,28.6s1.9,19.5,5.8,28.6
		c3.7,8.7,9,16.6,15.7,23.3c6.7,6.7,14.6,12,23.3,15.7c9,3.8,18.7,5.8,28.6,5.8c9.9,0,19.5-1.9,28.6-5.8c8.7-3.7,16.6-9,23.3-15.7
		c6.8-6.7,12-14.6,15.7-23.3c3.8-9,5.8-18.7,5.8-28.6S151.5,60.5,147.6,51.4z M80,145.7c-36.3,0-65.7-29.4-65.7-65.7
		c0-36.3,29.4-65.7,65.7-65.7c36.3,0,65.7,29.4,65.7,65.7C145.7,116.3,116.3,145.7,80,145.7z"/>
	<path class="st0" d="M149.1,50.8c-3.8-8.9-9.2-17-16.1-23.8c-6.9-6.9-14.9-12.3-23.8-16.1C99.9,7,90.1,5,80,5
		c-10.1,0-19.9,2-29.2,5.9c-8.9,3.8-17,9.2-23.8,16.1c-6.9,6.9-12.3,14.9-16.1,23.8C7,60.1,5,69.9,5,80s2,19.9,5.9,29.2
		c3.8,8.9,9.2,17,16.1,23.8c6.9,6.9,14.9,12.3,23.8,16.1C60.1,153,69.9,155,80,155c10.1,0,20-2,29.2-5.9c8.9-3.8,17-9.2,23.8-16.1
		c6.9-6.9,12.3-14.9,16.1-23.8C153,99.9,155,90.1,155,80S153,60.1,149.1,50.8z M147.6,108.6c-3.7,8.7-9,16.6-15.7,23.3
		c-6.7,6.7-14.6,12-23.3,15.7c-9,3.8-18.7,5.8-28.6,5.8c-9.9,0-19.5-1.9-28.6-5.8c-8.7-3.7-16.6-9-23.3-15.7
		c-6.7-6.7-12-14.6-15.7-23.3c-3.8-9-5.8-18.7-5.8-28.6s1.9-19.5,5.8-28.6c3.7-8.7,9-16.6,15.7-23.3c6.7-6.7,14.6-12,23.3-15.7
		c9-3.8,18.7-5.8,28.6-5.8c9.9,0,19.5,1.9,28.6,5.8c8.7,3.7,16.6,9,23.3,15.7c6.8,6.7,12,14.6,15.7,23.3c3.8,9,5.8,18.7,5.8,28.6
		S151.5,99.5,147.6,108.6z"/>
	<path class="st0" d="M111.8,56c-0.7-1.9-1.6-3.3-3-4.7s-2.8-2.3-4.7-3c-1.4-0.6-3.6-1.2-7.6-1.4c-4.3-0.2-5.6-0.2-16.5-0.2
		c-10.9,0-12.2,0-16.5,0.2c-4,0.2-6.1,0.8-7.6,1.4c-1.9,0.7-3.3,1.6-4.7,3.1c-1.4,1.4-2.3,2.8-3,4.7c-0.6,1.4-1.2,3.6-1.4,7.6
		c-0.2,4.3-0.2,5.6-0.2,16.5c0,10.9,0,12.2,0.2,16.5c0.2,4,0.8,6.1,1.4,7.6c0.7,1.9,1.6,3.3,3,4.7s2.8,2.3,4.7,3
		c1.4,0.6,3.6,1.2,7.6,1.4c4.3,0.2,5.6,0.2,16.5,0.2c10.9,0,12.2,0,16.5-0.2c4-0.2,6.1-0.8,7.6-1.4c1.9-0.7,3.3-1.6,4.7-3
		s2.3-2.8,3-4.7c0.6-1.4,1.2-3.6,1.4-7.6c0.2-4.3,0.2-5.6,0.2-16.5c0-10.9,0-12.2-0.2-16.5C113,59.6,112.3,57.4,111.8,56z M80,100.9
		c-11.5,0-20.9-9.4-20.9-20.9c0-11.6,9.4-20.9,20.9-20.9c11.6,0,20.9,9.4,20.9,20.9C100.9,91.6,91.6,100.9,80,100.9z M101.7,63.1
		c-2.7,0-4.9-2.2-4.9-4.9c0-2.7,2.2-4.9,4.9-4.9c2.7,0,4.9,2.2,4.9,4.9C106.6,61,104.4,63.1,101.7,63.1z"/>
	<path class="st0" d="M80,66.4c-7.5,0-13.6,6.1-13.6,13.6S72.5,93.6,80,93.6c7.5,0,13.6-6.1,13.6-13.6S87.5,66.4,80,66.4z"/>
	<path class="st0" d="M80,14.3c-36.3,0-65.7,29.4-65.7,65.7c0,36.3,29.4,65.7,65.7,65.7c36.3,0,65.7-29.4,65.7-65.7
		C145.7,43.7,116.3,14.3,80,14.3z M120.5,96.8c-0.2,4.3-0.9,7.3-1.9,9.9c-1,2.7-2.4,4.9-4.7,7.2c-2.3,2.3-4.5,3.7-7.2,4.7
		c-2.6,1-5.6,1.7-9.9,1.9c-4.3,0.2-5.7,0.2-16.8,0.2c-11.1,0-12.5,0-16.8-0.2c-4.3-0.2-7.3-0.9-9.9-1.9c-2.7-1-4.9-2.4-7.2-4.7
		c-2.3-2.3-3.7-4.5-4.7-7.2c-1-2.6-1.7-5.6-1.9-9.9c-0.2-4.3-0.2-5.7-0.2-16.8c0-11.1,0-12.4,0.2-16.8c0.2-4.3,0.9-7.3,1.9-9.9
		c1-2.7,2.4-4.9,4.7-7.2c2.3-2.3,4.5-3.7,7.2-4.7c2.6-1,5.6-1.7,9.9-1.9c4.3-0.2,5.7-0.2,16.8-0.2c11.1,0,12.5,0,16.8,0.2
		c4.3,0.2,7.3,0.9,9.9,1.9c2.7,1,4.9,2.4,7.2,4.7c2.3,2.3,3.7,4.5,4.7,7.2c1,2.6,1.7,5.6,1.9,9.9c0.2,4.4,0.2,5.7,0.2,16.8
		C120.7,91.1,120.7,92.4,120.5,96.8z"/>
</g>
</svg>
