<svg version="1.1" id="youtube" xmlns="http://www.w3.org/2000/svg" xmlns:xlink="http://www.w3.org/1999/xlink" x="0px" y="0px"
	 width="100%" viewBox="0 0 160 160" style="enable-background:new 0 0 160 160;" xml:space="preserve">
<g>
	<path class="st1" d="M147.6,51.4c-3.7-8.7-9-16.6-15.7-23.3c-6.7-6.7-14.6-12-23.3-15.7c-9-3.8-18.7-5.8-28.6-5.8
		c-9.9,0-19.5,1.9-28.6,5.8c-8.7,3.7-16.6,9-23.3,15.7c-6.7,6.7-12,14.6-15.7,23.3c-3.8,9-5.8,18.7-5.8,28.6s1.9,19.5,5.8,28.6
		c3.7,8.7,9,16.6,15.7,23.3c6.7,6.7,14.6,12,23.3,15.7c9,3.8,18.7,5.8,28.6,5.8c9.9,0,19.5-1.9,28.6-5.8c8.7-3.7,16.6-9,23.3-15.7
		c6.7-6.7,12-14.6,15.7-23.3c3.8-9,5.8-18.7,5.8-28.6S151.5,60.5,147.6,51.4z M80,145.7c-36.3,0-65.7-29.4-65.7-65.7
		c0-36.3,29.4-65.7,65.7-65.7c36.3,0,65.7,29.4,65.7,65.7C145.7,116.3,116.3,145.7,80,145.7z"/>
	<path class="st0" d="M149.1,50.8c-3.8-8.9-9.2-17-16.1-23.8c-6.9-6.9-14.9-12.3-23.8-16.1C99.9,7,90.1,5,80,5
		c-10.1,0-19.9,2-29.2,5.9c-8.9,3.8-17,9.2-23.8,16.1c-6.9,6.9-12.3,14.9-16.1,23.8C7,60.1,5,69.9,5,80c0,10.1,2,19.9,5.9,29.2
		c3.8,8.9,9.2,17,16.1,23.8c6.9,6.9,14.9,12.3,23.8,16.1C60.1,153,69.9,155,80,155c10.1,0,19.9-2,29.2-5.9c8.9-3.8,17-9.2,23.8-16.1
		c6.9-6.9,12.3-14.9,16.1-23.8C153,99.9,155,90.1,155,80C155,69.9,153,60.1,149.1,50.8z M147.6,108.6c-3.7,8.7-9,16.6-15.7,23.3
		c-6.7,6.7-14.6,12-23.3,15.7c-9,3.8-18.7,5.8-28.6,5.8c-9.9,0-19.5-1.9-28.6-5.8c-8.7-3.7-16.6-9-23.3-15.7
		c-6.7-6.7-12-14.6-15.7-23.3c-3.8-9-5.8-18.7-5.8-28.6s1.9-19.5,5.8-28.6c3.7-8.7,9-16.6,15.7-23.3c6.7-6.7,14.6-12,23.3-15.7
		c9-3.8,18.7-5.8,28.6-5.8c9.9,0,19.5,1.9,28.6,5.8c8.7,3.7,16.6,9,23.3,15.7c6.7,6.7,12,14.6,15.7,23.3c3.8,9,5.8,18.7,5.8,28.6
		S151.5,99.5,147.6,108.6z"/>
	<polygon class="st0" points="69.8,64.4 69.8,71.2 69.8,93.4 96.5,78.9 81.8,71 	"/>
	<path class="st0" d="M80,14.3c-36.3,0-65.7,29.4-65.7,65.7c0,36.3,29.4,65.7,65.7,65.7c36.3,0,65.7-29.4,65.7-65.7
		C145.7,43.7,116.3,14.3,80,14.3z M129.4,76.1v1.4v6.4c0,8.3-1,16.7-1,16.7s-1,7.1-3.9,10.2c-3.8,4.1-8,4.1-9.9,4.4
		c-13.8,1-34.6,1.1-34.6,1.1s-25.7-0.3-33.6-1c-2.2-0.4-7.1-0.3-10.9-4.4c-3-3.1-3.9-10.2-3.9-10.2s-1-8.3-1-16.7v-6.8v-1
		c0-8.3,1-16.7,1-16.7s1-7.1,3.9-10.2c3.8-4.1,8-4.1,9.9-4.4c13.8-1,34.6-1,34.6-1h0c0,0,20.7,0,34.6,1c1.9,0.2,6.1,0.3,9.9,4.4
		c3,3.1,3.9,10.2,3.9,10.2S129.4,67.7,129.4,76.1z"/>
</g>
</svg>
